<svg width="24" height="24" viewBox="0 0 24 24" fill="none" xmlns="http://www.w3.org/2000/svg">
<path fill-rule="evenodd" clip-rule="evenodd" d="M22 2H2V22H22V2ZM0 0V24H24V0H0ZM4.65685 4.29289C5.04738 3.90236 5.68054 3.90236 6.07106 4.29289L12.435 10.6568C12.8255 11.0474 12.8255 11.6805 12.435 12.0711L6.07106 18.435C5.68054 18.8255 5.04738 18.8255 4.65685 18.435C4.26633 18.0445 4.26633 17.4113 4.65685 17.0208L10.3137 11.364L4.65685 5.7071C4.26633 5.31658 4.26633 4.68341 4.65685 4.29289ZM10 17C9.44771 17 9 17.4477 9 18C9 18.5523 9.44771 19 10 19H19C19.5523 19 20 18.5523 20 18C20 17.4477 19.5523 17 19 17H10Z" fill="#166CBF"/>
</svg>
