<svg width="24" height="24" viewBox="0 0 24 24" fill="none" xmlns="http://www.w3.org/2000/svg">
<path fill-rule="evenodd" clip-rule="evenodd" d="M0 12C0 18.6275 5.37248 24 12 24C18.6275 24 24 18.6275 24 12C24 5.37248 18.6275 0 12 0C5.37248 0 0 5.37248 0 12ZM9.22964 3.24907C5.91898 4.29611 3.4204 7.16984 2.91666 10.6875H5.46676C5.79686 7.75959 7.18052 5.15075 9.22964 3.24907ZM5.45657 13.3125L2.91666 13.3125C3.41268 16.7763 5.84293 19.6157 9.07815 20.7016C7.09095 18.7925 5.75982 16.2055 5.45657 13.3125ZM14.7703 20.7509C18.081 19.7039 20.5796 16.8302 21.0833 13.3125L18.5332 13.3125C18.2031 16.2404 16.8195 18.8493 14.7703 20.7509ZM15.6859 13.3125C15.3122 15.8289 13.9171 18.012 11.9356 19.4267C9.99827 17.9924 8.64567 15.8133 8.3007 13.3125L15.6859 13.3125ZM15.6993 10.6875H8.31412C8.68775 8.17106 10.0829 5.98793 12.0644 4.57326C14.0017 6.00761 15.3543 8.18667 15.6993 10.6875ZM18.5434 10.6875H21.0833C20.5873 7.22372 18.1571 4.38429 14.9219 3.29846C16.9091 5.20756 18.2402 7.79451 18.5434 10.6875Z" fill="#166CBF"/>
</svg>
